<?xml version="1.0" encoding="UTF-8"?>
<svg id="_Слой_1" data-name="Слой 1" xmlns="http://www.w3.org/2000/svg" viewBox="0 0 2000 2000">
  <defs>
    <style>
      .cls-1 {
        fill: #fba300;
      }

      .cls-2 {
        fill: #080a0d;
      }

      .cls-3 {
        fill: #f65f00;
      }

      .cls-4 {
        fill: #fefefe;
      }
    </style>
  </defs>
  <path class="cls-2" d="M0,0h2000v2000H0V0Z"/>
  <path class="cls-4" d="M1558.04,468.09c-31.41,4.42-63.77,9.65-97,15.82-62.36,11.58-120.92,25.2-175.47,39.95,18.03,9.06,33.18,28.24,46.38,43.19,41.14-10.9,128.59-35.36,168.38-46.45-67.08,35.74-142.62,57.92-209.88,93.76,24.7-3.25,49.29-7.47,74-10.54,24.36,32.97,38.36,73.04,54.63,110.45,16.22,42.78,38.13,103.13,43.34,147.59-28.29-78.8-74.47-183.75-170.26-191.81-79.64.24-119.8,83.86-171.74,130.64-49.41,46.37-108.77,85.91-172.61,108.97,3.29,14.75,8.95,26.55,16.63,39.46-35.94-14.72-55.62-38.93-64.69-76.68,17.52,3.18,38.69,2.92,53.52-8.05,22.78-18.86,56.66-79.26,75.61-107.04,52.2-69.63,137.41-200.16,232.78-198.81-13.84-10.38-31.72-12.27-48.3-15-70.52-13.35-141.74-5.54-212.91-6.36,76.2-20.17,154.67-32.71,232.87-42.84,110.99-16.03,212.22-30.31,324.72-26.25Z"/>
  <path class="cls-4" d="M1063.97,405.67c70.79-5.78,116.62,5.7,135.17,10.26,8.06,1.98,14.72,3.88,19.35,5.27-10.17-.87-18.21-1.58-23.03-2.01-23.88-2.12-35.45-3.25-48.74-3.64-4.78-.14-9.56-.22-14.35-.23-4.79-.01-9.57.04-14.35.16-4.79.12-9.57.3-14.35.54-4.77.25-9.55.56-14.32.93-4.77.37-9.54.81-14.29,1.32-4.76.5-9.51,1.07-14.26,1.7-4.74.63-9.47,1.32-14.2,2.08-4.72.76-9.43,1.58-14.14,2.46-4.7.88-9.39,1.83-14.07,2.84-4.67,1.01-9.33,2.08-13.98,3.22-4.65,1.14-9.28,2.33-13.9,3.59-4.62,1.26-9.21,2.58-13.79,3.96-4.58,1.38-9.14,2.83-13.68,4.33-4.54,1.51-9.06,3.07-13.56,4.7-4.5,1.63-8.98,3.32-13.43,5.06-4.45,1.75-8.88,3.56-13.29,5.42-87.34,37.72-170.79,105.28-206.51,195.61,1.98,17.32,6.09,34.57,10.2,51.49,17.86,73.53,48.22,143.08,93.92,203.61-39.85-22.41-69.74-47-88.86-89.9-6.33-14.21-10.98-29.14-16.55-43.66-10.55,15.86-18.43,43.72-18.52,62.82-.45,97.37,66.67,181.61,131.86,247.2-11.16-5.03-21.54-13.74-31.09-21.39-43.97-35.26-66.01-64.26-98.49-109.36-43.39,44.75-63.1,104.76-78.29,163.88,6.59-7.65,12.27-16.05,19.21-23.4-3.56,19.35-11.33,38.52-16.35,57.59-10.35,39.32-13.41,86.51-9.29,126.94,11.51-80.99,35.71-149.16,81.29-217.51,5.98-8.97,12.93-17.36,19.29-26.08-17.05,39.96-34.78,77.23-40.83,120.79.56,4.24,1.03,8.74,2.64,12.73,16.25,40.19,57.9,62.26,95.39,78.83.85.37,1.71.75,2.63.82,4.71.36,11.93-7.74,14.29-11.26,6.57-9.8,4.85-20.44,2.69-31.26,25.13,46.06,34.54,87.98,44.21,138.87-6.54-11.58-12.74-24.46-20.63-35.11-17.58-23.74-40.75-17.86-66.51-21.8-17.19-2.63-72.6-14.18-81.57-27.48-5.76-8.55,3.26-36.06,5.39-45.75-35.85,45.79-49.62,72.18-60.23,130.11.5-2.73-5.05-10.99-6.21-13.78-2.26-5.46-4.31-10.99-6.2-16.59-3.62-10.74-6.59-21.7-9.13-32.74-15.76-68.38-19.71-139.42-9.58-208.93,1.64-11.25,4.89-22.28,7.6-33.36,3.56-14.5,6.06-29.75,14.67-42.22,1.25,19.29,2.3,38.37,2.72,57.7,8.88-26.1,17.49-52.78,30.04-77.4,6.34-12.45,14.06-24.22,21.52-36.02,6.81-10.78,13.38-21.73,21.96-31.21-.94-2.11-1.84-4.24-2.72-6.38-.87-2.14-1.71-4.29-2.51-6.46-.8-2.17-1.57-4.35-2.3-6.54-.73-2.19-1.43-4.39-2.09-6.61-.66-2.21-1.29-4.44-1.88-6.67-.59-2.23-1.15-4.48-1.67-6.73-.52-2.25-1.01-4.51-1.45-6.78-.45-2.27-.86-4.54-1.24-6.82-.38-2.28-.72-4.57-1.02-6.86-.3-2.29-.57-4.59-.8-6.89-.23-2.3-.42-4.6-.58-6.91-.16-2.31-.28-4.61-.36-6.92-.08-2.31-.13-4.62-.14-6.93-.01-2.31.02-4.62.08-6.93.06-2.31.16-4.62.3-6.93.14-2.31.31-4.61.52-6.91-23.63,10.76-47.27,21.46-68.3,36.97-12.42,9.16-23.17,20.09-35.99,28.93,12.85-31.87,50.53-58.26,76.33-79.36,8.57-7,16.55-14.71,25.37-21.4,14.59-11.07,29.9-20.89,44.28-32.33-7.59-27.74-14.01-55.76-19.27-84.04,14.67-45.59,39.46-81.48,69.78-117.8-24.12,10.82-48.99,19.54-73.83,28.53-15.68,5.68-31.43,12-47.43,16.68,20.23-15.52,49.92-32.8,72.01-46.53,119.68-74.37,218.55-114.67,359.45-126.17Z"/>
  <path class="cls-4" d="M1147.93,1416.74c18.99.03,37.97-.29,56.96-.45,16.39-.14,33.91-1.01,50.19,1.06,11.92,1.51,22.59,16.91,23.19,28.25.73,13.84-4.21,29.4-7.16,42.91-4.46,20.38-9.83,40.54-14.4,60.9-2.29,10.18-4.38,20.4-6.05,30.7-.87,5.35-2.33,10.74-2.17,16.2.17,6.11,3.26,9.69,6.12,14.82l-74.67.15s13.36-67.33,20.02-99.68c2.21-10.76,5.74-22.62,6.03-33.56.26-9.96-8.92-8.08-16.17-8.08-12.2,0-21.27-1.48-24.36,12.23-6.52,27.54-29.55,129.18-29.55,129.18l-62.94.06s5.07-24.78,7.55-36.07l14.05-65.17c2.25-10.59,5.44-22.09,5.77-32.93.08-2.64.42-4.59-1.38-6.58-9.16-1.39-19.56-.69-29.25-.28-3.89.16-7.35,2.55-8.84,6.15-3.81,9.19-5.24,19.49-7.34,29.11-4.09,18.01-8.09,36.04-11.98,54.09-3.49,16.58-12.69,51.17-12.69,51.17l-64.99-.36,42.62-194.01s120.14.29,141.49.22Z"/>
  <path class="cls-4" d="M504.04,1392.83l128.73.15c20.21-.13,40.42-.37,60.63-.72,13.64-.19,27.47-.97,41.07.42,4.69.48,9.15,2.41,12.63,5.6,2.51,2.31,4.71,4.88,6,8.17,3.77,9.67-.73,20.82-2.91,30.64l-7.93,35.75-10.37,46.72c-1.55,6.99-2.69,12.2-6.76,18.03-3.8,5.44-8.91,9.81-14.43,13.43-1.31.85-2.64,1.67-4,2.45-1.35.78-2.73,1.52-4.12,2.23-1.39.71-2.81,1.37-4.24,2-1.43.63-2.88,1.23-4.34,1.78-1.46.55-2.94,1.06-4.43,1.54-1.49.48-2.99.91-4.5,1.31-1.51.4-3.03.75-4.56,1.06-1.53.32-3.07.59-4.62.82-12.1,1.8-66.1,1.14-66.1,1.14l-140.02,183.8,28.29-119.97,47.32-193.93s24.87,15.03,37.68,17.38c7.89,1.44,25.46,1.94,25.46,1.94l-10.85,59.21,66.98.62,16.38-72.04s-22.77-.07-27.73-.02c-23.56.22-60,4.47-80.41-6.34-9.23-5.51-19.36-12.15-28.84-18.35-13.95-8.77-26.58-16.13-40-24.8Z"/>
  <path class="cls-4" d="M1353.27,1416.72c38.62.08,77.4-.97,116-.35,3.14.05,6.19,1.13,8.6,3.14,1.09.9,2.11,1.87,2.97,2.95,3.44,4.33,2.84,10.75,2.38,15.94-1.5,16.89-10.33,65.89-19.13,79.92-2.21,3.52-4.93,6.55-7.88,9.36-4.27,4.06-9.78,6.59-15.65,7.06-33.15,2.69-85.56.39-85.56.39l10.83-45.61,40.71-.35c4.03-.03,7.49-2.87,8.32-6.81l2.14-10.15c.34-1.6-.88-3.11-2.52-3.13l-53.02-.37c-4.17-.03-7.8,2.84-8.74,6.9-4.02,17.54-14.35,62.49-15.37,66.57-.56,2.21-.5,3,.11,5.12,6.24,3.62,28.43,1.8,36.33,1.8,21.16.38,60.95,2.66,80.13-2.23,12.23-3.13,24.2-9.95,34.83-16.63-4.78,12.76-13.08,23.99-22.8,33.6-19.8,19.59-47.93,43.02-76.65,46.64-12.75,1.59-26.47.47-39.35.56-14.78.11-29.57.33-44.35.42-7.51.05-15.03.06-22.54.03-6.85-.03-13.73-5.07-16.86-11.02-3.68-7-.17-15.09,1.08-22.28,1.44-8.23,3.16-16.41,4.96-24.57,3.26-14.81,6.97-29.52,10.1-44.36v-.05c3.57-16.92,5.74-34.74,10.95-51.2,1.49-4.71,3.54-8.21,6.8-11.89,13.55-15.29,32.51-28.29,53.19-29.41Z"/>
  <path class="cls-3" d="M1040.62,994.4c-56.54-3.79-88.29-6.12-131.79-47.09-22.03,27-32.65,60.86-46.17,92.36.02-1.67.06-3.37.09-5.06-.18.88-.37,1.77-.57,2.65-.91,4.07-1.9,8.13-2.99,12.15-1.14,4.19-2.53,8.31-3.39,12.58-1.65,8.21-1.87,16.59-2.12,24.93-.25,8.28-.87,16.55-1.14,24.83-.28,8.45-.32,16.91-.11,25.37.21,8.28.78,16.52,1.42,24.78.16,2,.29,4,.4,6,7.55,15.96,15.09,31.91,22.64,47.87.45-4.7,1.26-12.71,2.45-22.66,2.49-20.87,4.95-36.44,5.21-37.63,11.4-52.63,52.71-96.06,88.47-134.13-4.3,8.69-11.15,16.85-16.37,25.08-13.19,20.78-24.78,40.97-33.54,64.03,36.69-47.99,81.49-85.89,133.69-116.06-5.37-.25-10.79-.05-16.17,0Z"/>
  <path class="cls-1" d="M819.78,1047.54c.01-3.92.16-7.83.45-11.74,2.99-37.34,29.33-90.79,57.76-115.18-3.31,19.25-8.21,38.25-11.08,57.56-2.96,19.96-3.96,41.33-4.24,61.5,13.52-31.5,24.14-65.36,46.17-92.36,43.5,40.96,75.25,43.3,131.79,47.09,5.39,0,10.78,0,16.17,0-10.75,1.52-22.5,2.52-35.13,2.66-40.7.43-74.8-8.38-99.53-17.49-29.49,38.71-54.57,100.4-56.54,148.96-1.22,29.93,3.92,58.22,3.92,58.22,2.23,11.76,5,21.61,7.38,29.03-27.34-44.42-32.56-79.17-32.1-103,.25-13.12,2.29-26.47,9.09-111.34.16-2,.4-5.04.56-7-3.5,3.72-7.04,7.8-10.55,12.28-11.21,14.3-18.84,28.5-24.12,40.82Z"/>
  <path class="cls-4" d="M1198.3,1045.29c-1.16,1.87-29.94,27.03-34.77,31.89-2.31,2.32-4.6,4.67-6.85,7.04-2.25,2.37-4.48,4.77-6.68,7.2-2.2,2.43-4.37,4.88-6.52,7.36-2.14,2.47-4.25,4.97-6.33,7.5-2.09,2.53-4.14,5.08-6.16,7.66-2.03,2.57-4.02,5.17-5.98,7.79-1.96,2.63-3.89,5.27-5.79,7.94-1.9,2.67-3.77,5.35-5.61,8.06-1.83,2.71-3.64,5.45-5.41,8.2-1.77,2.75-3.51,5.53-5.22,8.32-1.71,2.8-3.38,5.62-5.02,8.45-1.65,2.83-3.26,5.69-4.83,8.56-1.57,2.87-3.11,5.75-4.62,8.66-1.51,2.91-2.98,5.84-4.41,8.78-1.44,2.94-2.84,5.9-4.21,8.88-1.37,2.97-2.7,5.96-4,8.97-12.88,5.99-24.87,14.56-36.43,22.77,53.77-21.14,99.43-30.12,156.92-33.37-28.04,8.75-57.37,13.41-85.43,21.97-16.99,5.18-33.19,12.61-49.37,19.84-22.77,10.17-45.07,20.7-67.06,32.47-38.57,21.91-75.45,49.84-109.53,78.22,3.64-7.85,6.66-16.03,10.13-23.97,9.67-22.12,24.55-43.1,37.74-63.26,18.47-28.23,40.33-57.29,54.96-74.58,63.1-74.59,190.59-132.47,210.48-141.35Z"/>
  <path class="cls-4" d="M771.68,1416.4l139.65-.2c-1.3,11.22-3.63,22.67-7.27,33.31-14.76,43.15-59.64,16.77-75.01,26.07-9.79,5.92-36.08,134.95-36.08,134.95l-64.64-.11,43.36-194.01Z"/>
  <path class="cls-4" d="M1484.67,982.89s11.03,70.34,13.2,92.29c4.69,47.57,10.87,95.21,13.44,142.98.7,12.91-.4,25.94-.34,38.88.07,16.76,1.13,33.58,2.03,50.32-4.41-12.47-6.12-26.27-9.41-39.14-3.19-12.49-7.9-24.07-12.51-36.07-7.78-20.29-12.27-37.69-28.92-52.9-14.69-13.42-30.14-15.72-49.32-14.98-36.92.67-72.92,8.45-109.18,14.25-14.82,2.37-29.84,3.39-44.69,5.72,9.76-5.38,21.37-8.85,31.8-12.83,17.6-6.89,35.34-13.42,53.21-19.57,25.72-8.68,53.41-16.47,77.17-29.9,35.92-20.31,52.93-101.28,63.52-139.05Z"/>
  <path class="cls-4" d="M925.73,1416.51l63.69.49s-29.32,129.03-43.98,193.2c-21.49.11-42.98.21-64.47.32,14.92-64.67,44.76-194.01,44.76-194.01Z"/>
  <path class="cls-4" d="M1201.06,787.78c.07,1.38.15,3.43.18,5.91.07,5.51,4.06,57.61-22.08,86.07-28.67,31.22-91.14,44.34-131.97,51.42-10.97,1.9-22.17,4.19-33.3,4.67-1.7.01-3.41.02-5.11.04,14.97-6.67,30.48-14.44,46.29-23.5,65.83-37.76,113.18-84.47,145.99-124.61Z"/>
  <path class="cls-1" d="M956.98,1354.96c11.91-3.17,37.37-1.35,70.97-1.29-21.67,12.58-31.43,34.48-35.74,49.27-21.55-.27-43.11-.53-64.66-.8,3.64-20.36,10.61-43.22,29.44-47.18Z"/>
  <path class="cls-4" d="M734.34,875.76c6.98,10.24,13.37,18.51,18.32,24.58,3.32,4.08,17.61,21.46,40.18,42.09,8.55,7.82,16.03,14.04,21.54,18.46-.76.51-1.73,1.05-2.91,1.47,0,0-.7.24-1.45.43-4.52,1.1-31.25-.48-36.55-1.45-3.18-.58-6.33-1.74-9.05-3.51-15.05-9.78-26.55-63.59-30.06-82.06Z"/>
  <path class="cls-4" d="M854.44,994.44c-.8,14.75-1.72,35.95-2,61.56-.15,13.55-.33,30.38.27,44.02.96,22.06,4.77,54.44,18.22,94.82-4.7-7.98-10.89-19.71-16.26-34.62-12.01-33.31-12.28-61.17-12.3-81.41-.02-20.3,2.05-49.84,12.07-84.37Z"/>
</svg>